<mxfile host="app.diagrams.net" modified="2020-05-31T14:45:14.079Z" agent="5.0 (Windows NT 10.0; Win64; x64) AppleWebKit/537.36 (KHTML, like Gecko) Chrome/83.0.4103.61 Safari/537.36" etag="AV-CJztuEX2JGbTdr7Ju" version="13.1.7" type="github">
  <diagram id="1MwcNvDsCMdtUdcm8Kb8" name="第 1 页">
    <mxGraphModel dx="477" dy="762" grid="1" gridSize="10" guides="1" tooltips="1" connect="1" arrows="1" fold="1" page="1" pageScale="1" pageWidth="827" pageHeight="1169" math="0" shadow="0">
      <root>
        <mxCell id="0" />
        <mxCell id="1" parent="0" />
        <mxCell id="WT6hAqRgKXSxZnjj4pXC-1" value="&lt;div&gt;&lt;div class=&quot;document&quot;&gt;&lt;h6&gt;&lt;span style=&quot;background: transparent ; letter-spacing: 0pt ; vertical-align: baseline&quot;&gt;&lt;font style=&quot;font-size: 12px&quot;&gt;2019年至2020年&lt;br&gt;工作回顾&lt;/font&gt;&lt;/span&gt;&lt;/h6&gt;&lt;/div&gt;&lt;/div&gt;" style="rounded=1;whiteSpace=wrap;html=1;" parent="1" vertex="1">
          <mxGeometry x="60" y="100" width="170" height="50" as="geometry" />
        </mxCell>
        <mxCell id="WT6hAqRgKXSxZnjj4pXC-3" value="&lt;font style=&quot;font-size: 12px&quot;&gt;&lt;span style=&quot;color: rgb(0 , 0 , 0) ; font-family: &amp;#34;helvetica&amp;#34; ; font-style: normal ; font-weight: 700 ; letter-spacing: normal ; text-align: center ; text-indent: 0px ; text-transform: none ; word-spacing: 0px ; background-color: rgb(248 , 249 , 250) ; float: none ; display: inline&quot;&gt;2020发展主要目标和下一阶段工作总体部署&lt;/span&gt;&lt;br&gt;&lt;/font&gt;" style="rounded=1;whiteSpace=wrap;html=1;" parent="1" vertex="1">
          <mxGeometry x="60" y="320" width="170" height="50" as="geometry" />
        </mxCell>
        <mxCell id="WT6hAqRgKXSxZnjj4pXC-5" value="&lt;div class=&quot;document&quot;&gt;&lt;h6&gt;&lt;div&gt;&lt;div class=&quot;document&quot;&gt;&lt;/div&gt;&lt;/div&gt;&lt;/h6&gt;&lt;h6&gt;&lt;span style=&quot;font-weight: 700 ; font-style: normal ; color: rgb(0 , 0 , 0) ; background: transparent ; letter-spacing: 0pt ; vertical-align: baseline&quot;&gt;&lt;font style=&quot;font-size: 12px&quot;&gt;加大宏观政策实施力度，着力稳企业保就业&lt;/font&gt;&lt;/span&gt;&lt;/h6&gt;&lt;/div&gt;" style="rounded=1;whiteSpace=wrap;html=1;" parent="1" vertex="1">
          <mxGeometry x="60" y="420" width="170" height="50" as="geometry" />
        </mxCell>
        <mxCell id="WT6hAqRgKXSxZnjj4pXC-6" value="&lt;div class=&quot;document&quot;&gt;&lt;h6&gt;&lt;div&gt;&lt;div class=&quot;document&quot;&gt;&lt;/div&gt;&lt;/div&gt;&lt;/h6&gt;&lt;h6&gt;&lt;span style=&quot;font-weight: 700 ; font-style: normal ; color: rgb(0 , 0 , 0) ; background: transparent ; letter-spacing: 0pt ; vertical-align: baseline&quot;&gt;&lt;font style=&quot;font-size: 12px&quot;&gt;依靠改革激发市场主体活力，增强发展新动能&lt;/font&gt;&lt;/span&gt;&lt;/h6&gt;&lt;/div&gt;" style="rounded=1;whiteSpace=wrap;html=1;" parent="1" vertex="1">
          <mxGeometry x="60" y="530" width="170" height="50" as="geometry" />
        </mxCell>
        <mxCell id="WT6hAqRgKXSxZnjj4pXC-7" value="&lt;div class=&quot;document&quot;&gt;&lt;h6&gt;&lt;div&gt;&lt;div class=&quot;document&quot;&gt;&lt;/div&gt;&lt;/div&gt;&lt;/h6&gt;&lt;h6&gt;&lt;div&gt;&lt;div class=&quot;document&quot;&gt;&lt;/div&gt;&lt;/div&gt;&lt;/h6&gt;&lt;h6&gt;&lt;span style=&quot;font-weight: 700 ; font-style: normal ; color: rgb(0 , 0 , 0) ; background: transparent ; letter-spacing: 0pt ; vertical-align: baseline&quot;&gt;&lt;font style=&quot;font-size: 12px&quot;&gt;实施扩大内需战略，推动经济发展方式加快转变&lt;/font&gt;&lt;/span&gt;&lt;/h6&gt;&lt;/div&gt;" style="rounded=1;whiteSpace=wrap;html=1;" parent="1" vertex="1">
          <mxGeometry x="60" y="640" width="170" height="50" as="geometry" />
        </mxCell>
        <mxCell id="WT6hAqRgKXSxZnjj4pXC-8" value="&lt;div class=&quot;document&quot;&gt;&lt;h6&gt;&lt;div&gt;&lt;div class=&quot;document&quot;&gt;&lt;/div&gt;&lt;/div&gt;&lt;/h6&gt;&lt;h6&gt;&lt;div&gt;&lt;div class=&quot;document&quot;&gt;&lt;/div&gt;&lt;/div&gt;&lt;/h6&gt;&lt;h6&gt;&lt;div&gt;&lt;div class=&quot;document&quot;&gt;&lt;/div&gt;&lt;/div&gt;&lt;/h6&gt;&lt;h6&gt;&lt;span style=&quot;font-weight: 700 ; font-style: normal ; color: rgb(0 , 0 , 0) ; background: transparent ; letter-spacing: 0pt ; vertical-align: baseline&quot;&gt;&lt;font style=&quot;font-size: 12px&quot;&gt;确保实现脱贫攻坚目标，促进农业丰收农民增收&lt;/font&gt;&lt;/span&gt;&lt;span style=&quot;font-size: 12pt ; font-family: &amp;#34;microsoft yahei&amp;#34; , , &amp;#34;pingfang sc&amp;#34; , &amp;#34;noto sans cjk sc&amp;#34; , &amp;#34;sf pro&amp;#34; , &amp;#34;roboto&amp;#34; , &amp;#34;droid sans&amp;#34; , &amp;#34;helvetica&amp;#34; , &amp;#34;tahoma&amp;#34; , &amp;#34;arial&amp;#34; , &amp;#34;hiragino sans gb&amp;#34; , &amp;#34;heiti sc&amp;#34; , sans-serif ; font-weight: 700 ; font-style: normal ; color: black ; background: transparent ; letter-spacing: 0pt ; vertical-align: baseline&quot;&gt;&lt;/span&gt;&lt;/h6&gt;&lt;/div&gt;" style="rounded=1;whiteSpace=wrap;html=1;" parent="1" vertex="1">
          <mxGeometry x="60" y="750" width="170" height="50" as="geometry" />
        </mxCell>
        <mxCell id="WT6hAqRgKXSxZnjj4pXC-9" value="&lt;div class=&quot;document&quot;&gt;&lt;h6&gt;&lt;div&gt;&lt;div class=&quot;document&quot;&gt;&lt;/div&gt;&lt;/div&gt;&lt;/h6&gt;&lt;h6&gt;&lt;div&gt;&lt;div class=&quot;document&quot;&gt;&lt;/div&gt;&lt;/div&gt;&lt;/h6&gt;&lt;h6&gt;&lt;div&gt;&lt;div class=&quot;document&quot;&gt;&lt;/div&gt;&lt;/div&gt;&lt;/h6&gt;&lt;font style=&quot;font-size: 12px&quot;&gt;&lt;/font&gt;&lt;div&gt;&lt;div class=&quot;document&quot;&gt;&lt;h6&gt;推进更高水平对外开放，稳住外贸外资基本盘&lt;/h6&gt;&lt;/div&gt;&lt;/div&gt;&lt;/div&gt;" style="rounded=1;whiteSpace=wrap;html=1;" parent="1" vertex="1">
          <mxGeometry x="60" y="860" width="170" height="50" as="geometry" />
        </mxCell>
        <mxCell id="WT6hAqRgKXSxZnjj4pXC-10" value="&lt;div class=&quot;document&quot;&gt;&lt;h6&gt;&lt;div&gt;&lt;div class=&quot;document&quot;&gt;&lt;/div&gt;&lt;/div&gt;&lt;/h6&gt;&lt;h6&gt;&lt;div&gt;&lt;div class=&quot;document&quot;&gt;&lt;/div&gt;&lt;/div&gt;&lt;/h6&gt;&lt;h6&gt;&lt;div&gt;&lt;div class=&quot;document&quot;&gt;&lt;/div&gt;&lt;/div&gt;&lt;/h6&gt;&lt;font style=&quot;font-size: 12px&quot;&gt;&lt;/font&gt;&lt;div&gt;&lt;div class=&quot;document&quot;&gt;&lt;h6&gt;围绕保障和改善民生，推动社会事业改革发展&lt;/h6&gt;&lt;/div&gt;&lt;/div&gt;&lt;/div&gt;" style="rounded=1;whiteSpace=wrap;html=1;" parent="1" vertex="1">
          <mxGeometry x="60" y="960" width="170" height="50" as="geometry" />
        </mxCell>
        <mxCell id="WT6hAqRgKXSxZnjj4pXC-12" value="&lt;div&gt;&lt;div class=&quot;document&quot;&gt;&lt;p class=&quot;paragraph text-align-type-left pap-line-1.3 pap-line-rule-auto pap-spacing-before-0pt pap-spacing-after-0pt pap-firstline-indent-32pt&quot; style=&quot;line-height: 130% ; margin-top: 0px ; margin-bottom: 0px ; text-indent: 42.6667px&quot;&gt;&lt;span style=&quot;font-size: 10pt ; background: transparent ; letter-spacing: 0pt ; vertical-align: baseline&quot;&gt;①、经济运行总体平稳。国内生产总值达到99.1万亿元，增长6.1%。&lt;br&gt;&amp;nbsp; &amp;nbsp; &amp;nbsp; &amp;nbsp; &amp;nbsp; &amp;nbsp; &amp;nbsp; &amp;nbsp; &amp;nbsp; &amp;nbsp;城镇新增就业1352万人，调查失业率在5.3%以下。居民消费价格上涨2.9%。&lt;/span&gt;&lt;/p&gt;&lt;p class=&quot;paragraph text-align-type-left pap-line-1.3 pap-line-rule-auto pap-spacing-before-0pt pap-spacing-after-0pt pap-firstline-indent-32pt&quot; style=&quot;line-height: 130% ; margin-top: 0px ; margin-bottom: 0px ; text-indent: 42.6667px&quot;&gt;&lt;span style=&quot;font-size: 10pt ; background: transparent ; letter-spacing: 0pt ; vertical-align: baseline&quot;&gt;&amp;nbsp; &amp;nbsp; &amp;nbsp; &amp;nbsp; 国际收支基本平衡。&lt;/span&gt;&lt;span style=&quot;font-size: 10pt ; font-family: &amp;#34;microsoft yahei&amp;#34; , , &amp;#34;pingfang sc&amp;#34; , &amp;#34;noto sans cjk sc&amp;#34; , &amp;#34;sf pro&amp;#34; , &amp;#34;roboto&amp;#34; , &amp;#34;droid sans&amp;#34; , &amp;#34;helvetica&amp;#34; , &amp;#34;tahoma&amp;#34; , &amp;#34;arial&amp;#34; , &amp;#34;hiragino sans gb&amp;#34; , &amp;#34;heiti sc&amp;#34; , sans-serif ; background: transparent ; letter-spacing: 0pt ; vertical-align: baseline&quot;&gt;&lt;/span&gt;&lt;/p&gt;&lt;p class=&quot;paragraph text-align-type-left pap-line-1.3 pap-line-rule-auto pap-spacing-before-0pt pap-spacing-after-0pt pap-firstline-indent-32pt&quot; style=&quot;line-height: 130% ; margin-top: 0px ; margin-bottom: 0px ; text-indent: 42.6667px&quot;&gt;&lt;span style=&quot;font-size: 10pt ; background: transparent ; letter-spacing: 0pt ; vertical-align: baseline&quot;&gt;②、经济结构和区域布局继续优化。社会消费品零售总额超过40万亿元，&lt;br&gt;&amp;nbsp; &amp;nbsp; &amp;nbsp; &amp;nbsp; &amp;nbsp; &amp;nbsp; &amp;nbsp; &amp;nbsp; &amp;nbsp; &amp;nbsp;消费持续发挥主要拉动作用。先进制造业、现代服务业较快增长。&lt;br&gt;&amp;nbsp; &amp;nbsp; &amp;nbsp; &amp;nbsp; &amp;nbsp; &amp;nbsp; &amp;nbsp; &amp;nbsp; &amp;nbsp; &amp;nbsp;粮食产量保持在1.3万亿斤以上。常住人口城镇化率首次超过60%，重大区域战略深入实施。&lt;/span&gt;&lt;span style=&quot;font-size: 10pt ; font-family: &amp;#34;microsoft yahei&amp;#34; , , &amp;#34;pingfang sc&amp;#34; , &amp;#34;noto sans cjk sc&amp;#34; , &amp;#34;sf pro&amp;#34; , &amp;#34;roboto&amp;#34; , &amp;#34;droid sans&amp;#34; , &amp;#34;helvetica&amp;#34; , &amp;#34;tahoma&amp;#34; , &amp;#34;arial&amp;#34; , &amp;#34;hiragino sans gb&amp;#34; , &amp;#34;heiti sc&amp;#34; , sans-serif ; background: transparent ; letter-spacing: 0pt ; vertical-align: baseline&quot;&gt;&lt;/span&gt;&lt;/p&gt;&lt;p class=&quot;paragraph text-align-type-left pap-line-1.3 pap-line-rule-auto pap-spacing-before-0pt pap-spacing-after-0pt pap-firstline-indent-32pt&quot; style=&quot;line-height: 130% ; margin-top: 0px ; margin-bottom: 0px ; text-indent: 42.6667px&quot;&gt;&lt;span style=&quot;font-size: 10pt ; background: transparent ; letter-spacing: 0pt ; vertical-align: baseline&quot;&gt;③、发展新动能不断增强。科技创新取得一批重大成果。新兴产业持续壮大，传统产业加快升级。&lt;br&gt;&amp;nbsp; &amp;nbsp; &amp;nbsp; &amp;nbsp; &amp;nbsp; &amp;nbsp; &amp;nbsp; &amp;nbsp; &amp;nbsp; &amp;nbsp;大众创业万众创新深入开展，企业数量日均净增1万户以上。&lt;/span&gt;&lt;span style=&quot;font-size: 10pt ; font-family: &amp;#34;microsoft yahei&amp;#34; , , &amp;#34;pingfang sc&amp;#34; , &amp;#34;noto sans cjk sc&amp;#34; , &amp;#34;sf pro&amp;#34; , &amp;#34;roboto&amp;#34; , &amp;#34;droid sans&amp;#34; , &amp;#34;helvetica&amp;#34; , &amp;#34;tahoma&amp;#34; , &amp;#34;arial&amp;#34; , &amp;#34;hiragino sans gb&amp;#34; , &amp;#34;heiti sc&amp;#34; , sans-serif ; background: transparent ; letter-spacing: 0pt ; vertical-align: baseline&quot;&gt;&lt;/span&gt;&lt;/p&gt;&lt;p class=&quot;paragraph text-align-type-left pap-line-1.3 pap-line-rule-auto pap-spacing-before-0pt pap-spacing-after-0pt pap-firstline-indent-32pt&quot; style=&quot;line-height: 130% ; margin-top: 0px ; margin-bottom: 0px ; text-indent: 42.6667px&quot;&gt;&lt;span style=&quot;font-size: 10pt ; background: transparent ; letter-spacing: 0pt ; vertical-align: baseline&quot;&gt;④、改革开放迈出重要步伐。供给侧结构性改革继续深化，重要领域改革取得新突破。&lt;br&gt;&amp;nbsp; &amp;nbsp; &amp;nbsp; &amp;nbsp; &amp;nbsp; &amp;nbsp; &amp;nbsp; &amp;nbsp; &amp;nbsp; &amp;nbsp;减税降费2.36万亿元，超过原定的近2万亿元规模，制造业和小微企业受益最多。&lt;br&gt;&amp;nbsp; &amp;nbsp; &amp;nbsp; &amp;nbsp; &amp;nbsp; &amp;nbsp; &amp;nbsp; &amp;nbsp; &amp;nbsp; &amp;nbsp;政府机构改革任务完成。“放管服”改革纵深推进。设立科创板。共建“一带一路”取得新成效。&lt;br&gt;&amp;nbsp; &amp;nbsp; &amp;nbsp; &amp;nbsp; &amp;nbsp; &amp;nbsp; &amp;nbsp; &amp;nbsp; &amp;nbsp; &amp;nbsp;出台外商投资法实施条例，增设上海自贸试验区新片区。外贸外资保持稳定。&lt;/span&gt;&lt;span style=&quot;font-size: 10pt ; font-family: &amp;#34;microsoft yahei&amp;#34; , , &amp;#34;pingfang sc&amp;#34; , &amp;#34;noto sans cjk sc&amp;#34; , &amp;#34;sf pro&amp;#34; , &amp;#34;roboto&amp;#34; , &amp;#34;droid sans&amp;#34; , &amp;#34;helvetica&amp;#34; , &amp;#34;tahoma&amp;#34; , &amp;#34;arial&amp;#34; , &amp;#34;hiragino sans gb&amp;#34; , &amp;#34;heiti sc&amp;#34; , sans-serif ; background: transparent ; letter-spacing: 0pt ; vertical-align: baseline&quot;&gt;&lt;/span&gt;&lt;/p&gt;&lt;p class=&quot;paragraph text-align-type-left pap-line-1.3 pap-line-rule-auto pap-spacing-before-0pt pap-spacing-after-0pt pap-firstline-indent-32pt&quot; style=&quot;line-height: 130% ; margin-top: 0px ; margin-bottom: 0px ; text-indent: 42.6667px&quot;&gt;&lt;span style=&quot;font-size: 10pt ; background: transparent ; letter-spacing: 0pt ; vertical-align: baseline&quot;&gt;⑤、三大攻坚战取得关键进展。农村贫困人口减少1109万，贫困发生率降至0.6%，脱贫攻坚取得决定性成就。&lt;br&gt;&amp;nbsp; &amp;nbsp; &amp;nbsp; &amp;nbsp; &amp;nbsp; &amp;nbsp; &amp;nbsp; &amp;nbsp; &amp;nbsp; &amp;nbsp;污染防治持续推进，主要污染物排放量继续下降，生态环境总体改善。金融运行总体平稳。&lt;/span&gt;&lt;span style=&quot;font-size: 10pt ; font-family: &amp;#34;microsoft yahei&amp;#34; , , &amp;#34;pingfang sc&amp;#34; , &amp;#34;noto sans cjk sc&amp;#34; , &amp;#34;sf pro&amp;#34; , &amp;#34;roboto&amp;#34; , &amp;#34;droid sans&amp;#34; , &amp;#34;helvetica&amp;#34; , &amp;#34;tahoma&amp;#34; , &amp;#34;arial&amp;#34; , &amp;#34;hiragino sans gb&amp;#34; , &amp;#34;heiti sc&amp;#34; , sans-serif ; background: transparent ; letter-spacing: 0pt ; vertical-align: baseline&quot;&gt;&lt;/span&gt;&lt;/p&gt;&lt;p class=&quot;paragraph text-align-type-left pap-line-1.3 pap-line-rule-auto pap-spacing-before-0pt pap-spacing-after-0pt pap-firstline-indent-32pt&quot; style=&quot;line-height: 130% ; margin-top: 0px ; margin-bottom: 0px ; text-indent: 42.6667px&quot;&gt;&lt;span style=&quot;font-size: 10pt ; background: transparent ; letter-spacing: 0pt ; vertical-align: baseline&quot;&gt;⑥、民生进一步改善。居民人均可支配收入超过3万元。基本养老、医疗、低保等保障水平提高。&lt;br&gt;&amp;nbsp; &amp;nbsp; &amp;nbsp; &amp;nbsp; &amp;nbsp; &amp;nbsp; &amp;nbsp; &amp;nbsp; &amp;nbsp; &amp;nbsp;城镇保障房建设和农村危房改造深入推进。义务教育学生生活补助人数增加近40%，高职院校扩招100万人。&lt;/span&gt;&lt;/p&gt;&lt;/div&gt;&lt;/div&gt;" style="text;html=1;align=left;verticalAlign=middle;resizable=0;points=[];autosize=1;" parent="1" vertex="1">
          <mxGeometry x="237" y="10" width="720" height="260" as="geometry" />
        </mxCell>
        <mxCell id="7a5fItOCjY3D-EyD9LjT-1" value="&amp;nbsp; &amp;nbsp;①、六稳：&lt;span style=&quot;color: rgb(51 , 51 , 51) ; font-family: &amp;#34;arial&amp;#34; ; background-color: rgb(255 , 255 , 255)&quot;&gt;&lt;font style=&quot;font-size: 12px&quot;&gt;稳就业、稳金融、稳外贸、稳外资、稳投资、稳预期。&lt;/font&gt;&lt;/span&gt;&lt;br&gt;&amp;nbsp; &amp;nbsp;②、六保：保就业、保民生、保市场、保粮食能源安全、保产业链供应链稳定、保基层运转" style="text;html=1;align=left;verticalAlign=middle;resizable=0;points=[];autosize=1;" vertex="1" parent="1">
          <mxGeometry x="270" y="320" width="510" height="30" as="geometry" />
        </mxCell>
        <mxCell id="7a5fItOCjY3D-EyD9LjT-2" value="&lt;div style=&quot;text-align: left&quot;&gt;&lt;span&gt;①、保障就业民生，稳住上亿市场主体，帮助中小微企业、个体工商户渡过难关&lt;br&gt;②、&lt;/span&gt;&lt;span style=&quot;background-color: transparent ; font-size: 10pt ; letter-spacing: 0pt ; text-indent: 42.6667px&quot;&gt;加大减税降费力度。&lt;/span&gt;&lt;/div&gt;&lt;div style=&quot;text-align: left&quot;&gt;&lt;span style=&quot;background-color: transparent ; font-size: 10pt ; letter-spacing: 0pt ; text-indent: 42.6667px&quot;&gt;③、&lt;/span&gt;&lt;span style=&quot;background-color: transparent ; font-size: 10pt ; letter-spacing: 0pt ; text-indent: 42.6667px&quot;&gt;降低企业生产经营成本。&lt;/span&gt;&lt;/div&gt;&lt;div style=&quot;text-align: left&quot;&gt;&lt;span style=&quot;background-color: transparent ; font-size: 10pt ; letter-spacing: 0pt ; text-indent: 42.6667px&quot;&gt;④、强化稳定企业的金融支持。&lt;/span&gt;&lt;/div&gt;" style="text;html=1;align=center;verticalAlign=middle;resizable=0;points=[];autosize=1;" vertex="1" parent="1">
          <mxGeometry x="270" y="415" width="440" height="60" as="geometry" />
        </mxCell>
        <mxCell id="7a5fItOCjY3D-EyD9LjT-3" value="&lt;div style=&quot;text-align: left&quot;&gt;&lt;span&gt;①、企业开办全程网上办理、房宽小微企业、个体工商户等级经营场所限制、便利各类创业者注册经营&lt;/span&gt;&lt;/div&gt;&lt;div style=&quot;text-align: left&quot;&gt;&lt;span&gt;②、&lt;/span&gt;&lt;span style=&quot;background-color: transparent ; font-size: 10pt ; letter-spacing: 0pt ; text-indent: 42.6667px&quot;&gt;推进要素市场化配置改革。&lt;br&gt;③、提升国资国企改革成效。&lt;/span&gt;&lt;/div&gt;&lt;div style=&quot;text-align: left&quot;&gt;&lt;span style=&quot;background-color: transparent ; font-size: 10pt ; letter-spacing: 0pt ; text-indent: 42.6667px&quot;&gt;④、优化民营经济发展环境。保障民营企业平等获取生产要素和政策支持，清理废除与企业性质挂钩的不合理规定。&lt;/span&gt;&lt;/div&gt;&lt;div style=&quot;text-align: left&quot;&gt;&lt;span style=&quot;font-size: 10pt ; letter-spacing: 0pt ; text-indent: 42.6667px&quot;&gt;⑤、&lt;font style=&quot;background-color: rgb(204 , 102 , 0)&quot;&gt;推动制造业升级和新兴产业发展。大幅增加制造业中长期贷款。发展工业互联网，推进智能制造。&lt;/font&gt;&lt;br&gt;⑥、提高科技创新支撑能力。稳定支持基础研究和应用基础研究，引导企业增加研发投入。加快建立国家实验室。&lt;br&gt;⑦、深入推进大众创业创新。发展创业投资。&lt;/span&gt;&lt;/div&gt;" style="text;html=1;align=center;verticalAlign=middle;resizable=0;points=[];autosize=1;" vertex="1" parent="1">
          <mxGeometry x="270" y="490" width="700" height="100" as="geometry" />
        </mxCell>
      </root>
    </mxGraphModel>
  </diagram>
</mxfile>
